<svg id="Layer_1" data-name="Layer 1" xmlns="http://www.w3.org/2000/svg" viewBox="0 0 800 1131"><defs><style>.cls-1{fill:#f2db36;}.cls-2{fill:#279330;}.cls-3{fill:#29abe2;}.cls-4{fill:#9241a5;}.cls-5{fill:#c1272d;}.cls-6{fill:#4f3470;}.cls-7{fill:#a82932;}.cls-8{fill:#fff;}.cls-9{fill:#353535;}</style></defs><title>DDS_SVG_Logo_Vert</title><path class="cls-1" d="M414,218.59a189.5,189.5,0,0,0-36.37-3.5H278.2V469A189.75,189.75,0,0,1,237,473.52H137.52V95.72H237A189,189,0,0,1,414,218.59Z"/><path class="cls-2" d="M425.88,284.62a188.62,188.62,0,0,1-10,60.92v0l-.12.24c-.32.68-.65,1.37-1,2.06-.66,1.42-1.3,2.85-1.9,4.29q-2.06,4.83-3.75,9.77c-.28.79-.55,1.58-.8,2.38l0,0A189.26,189.26,0,0,1,278.2,469V215.09h99.45a189.5,189.5,0,0,1,36.37,3.5A188.46,188.46,0,0,1,425.88,284.62Z"/><path class="cls-3" d="M374.52,591.59c.42.42.87.87,1.32,1.29H278.2V469A189.26,189.26,0,0,0,408.28,364.34l-.27.86q-.33,1-.63,2c-.3,1-.59,2-.86,2.93q-.76,2.67-1.42,5.37a.09.09,0,0,0,0,.05c-.11.44-.22.87-.31,1.31-.19.76-.36,1.53-.53,2.29s-.38,1.79-.55,2.69-.37,1.83-.53,2.74c-.07.38-.14.76-.2,1.14-.13.74-.25,1.47-.37,2.21s-.22,1.41-.32,2.11c0,.09,0,.18,0,.26-.07.48-.13,1-.19,1.44-.13.89-.24,1.79-.33,2.68-.09.7-.16,1.39-.23,2.09-.1.89-.18,1.79-.25,2.68,0,.4-.07.8-.1,1.2-.13,1.73-.23,3.46-.3,5.2,0,.32,0,.64,0,.95,0,.83-.05,1.67-.07,2.5,0,1,0,2,0,3A152.89,152.89,0,0,0,445.6,520.5Z"/><path class="cls-2" d="M408.3,364.3c-.1.3-.2.6-.29.9l.27-.86Z"/><path class="cls-3" d="M506.8,266.13a153.2,153.2,0,0,0-61.2,37.51q-2.44,2.44-4.77,5c-.53.58-1.06,1.17-1.58,1.76s-1.16,1.32-1.73,2c-.41.47-.81.94-1.2,1.42-.64.76-1.27,1.53-1.89,2.3s-1,1.27-1.52,1.92l-.67.87c-.41.53-.82,1.06-1.22,1.6l-.68.92c-.42.57-.83,1.14-1.24,1.72s-.67.93-1,1.41c-.78,1.11-1.55,2.24-2.28,3.37-.32.46-.62.92-.91,1.39-.69,1.07-1.37,2.15-2,3.23q-.57.93-1.11,1.86c-.4.67-.79,1.35-1.17,2-.2.34-.39.68-.58,1-.36.64-.72,1.28-1.06,1.93-.18.33-.36.66-.53,1l-.21.39q-1.25,2.37-2.4,4.78a189.79,189.79,0,0,0-1.82-127A188.35,188.35,0,0,1,506.8,266.13Z"/><path class="cls-4" d="M566.48,399.62,445.6,520.5a152.89,152.89,0,0,1-44.9-108.43c0-1,0-2,0-3,0-.83,0-1.67.07-2.5,0-.31,0-.63,0-.95.07-1.74.17-3.47.3-5.2,0-.4.06-.8.1-1.2.07-.89.15-1.79.25-2.68.07-.7.14-1.39.23-2.09.09-.89.2-1.79.33-2.68.06-.48.12-1,.19-1.44,0-.08,0-.17,0-.26.1-.7.21-1.41.32-2.11s.24-1.47.37-2.21c.06-.38.13-.76.2-1.14.16-.91.33-1.83.53-2.74s.36-1.79.55-2.69.34-1.53.53-2.29c.09-.44.2-.87.31-1.31a.09.09,0,0,1,0-.05q.66-2.7,1.42-5.37c.27-1,.56-2,.86-2.93q.3-1,.63-2c.09-.3.19-.6.29-.9.26-.8.53-1.59.8-2.38q1.69-4.94,3.75-9.77c.6-1.44,1.24-2.87,1.9-4.29.31-.69.64-1.38,1-2.06l.12-.24v0q1.16-2.42,2.4-4.78l.21-.39c.17-.34.35-.67.53-1,.34-.65.7-1.29,1.06-1.93.19-.35.38-.69.58-1,.38-.68.77-1.36,1.17-2s.73-1.24,1.11-1.86c.65-1.08,1.33-2.16,2-3.23.29-.46.6-.93.91-1.39.73-1.13,1.5-2.26,2.28-3.37q.48-.7,1-1.41c.41-.58.82-1.15,1.24-1.72l.68-.92c.4-.54.81-1.07,1.22-1.6l.67-.87c.5-.65,1-1.28,1.52-1.92s1.25-1.54,1.89-2.3c.39-.48.79-1,1.2-1.42.57-.67,1.14-1.33,1.73-2s1.05-1.18,1.58-1.76q2.32-2.53,4.77-5a153.2,153.2,0,0,1,61.2-37.51A188.36,188.36,0,0,1,566.48,399.62Z"/><path class="cls-4" d="M408.3,364.3c-.1.3-.2.6-.29.9l.27-.86Z"/><path class="cls-5" d="M662.48,303.64,591.4,374.7l-24.92,24.92A188.36,188.36,0,0,0,506.8,266.13,153.36,153.36,0,0,1,662.48,303.64Z"/><path class="cls-6" d="M566.55,404c0,104.33-84.57,188.9-188.9,188.9h-1.81c-.45-.42-.9-.87-1.32-1.29L445.6,520.5,566.48,399.62C566.53,401.08,566.55,402.53,566.55,404Z"/><path class="cls-7" d="M591.4,374.7l-24.92,24.92c0,1.46.07,2.91.07,4.36,0,104.33-84.57,188.9-188.9,188.9h-1.81c60,58.61,164.2,59.48,223.67,0a139,139,0,0,0,13.92-16.22V526.08l-16.32,4.63-3.25-11.34,21.31-7.53h11.57v42.53C654.32,496.38,639.7,423,591.4,374.7Zm-2.17,218.18H535.86V582.46l28.25-28.82q10.3-10.3,10.3-17.83,0-5.91-3.53-9.21a12.6,12.6,0,0,0-9-3.3q-10.18,0-15,10.08l-11.23-6.6A27.62,27.62,0,0,1,546.4,514.5a29.41,29.41,0,0,1,15.39-4.16,26.83,26.83,0,0,1,18.3,6.71q7.63,6.72,7.64,18.29,0,12.33-13.92,26.26L555.42,580h33.81Z"/><path class="cls-8" d="M589.23,580v12.85H535.86V582.46l28.25-28.82q10.3-10.3,10.3-17.83,0-5.91-3.53-9.21a12.6,12.6,0,0,0-9-3.3q-10.18,0-15,10.08l-11.23-6.6A27.62,27.62,0,0,1,546.4,514.5a29.41,29.41,0,0,1,15.39-4.16,26.83,26.83,0,0,1,18.3,6.71q7.63,6.72,7.64,18.29,0,12.33-13.92,26.26L555.42,580Z"/><path class="cls-8" d="M626.74,511.84v42.53a137.44,137.44,0,0,1-13.31,22.29V526.08l-16.32,4.63-3.25-11.34,21.31-7.53Z"/><path class="cls-9" d="M199.06,679q19.13,0,31.64,13.58t12.51,33.25q0,19.66-12.51,33.24t-31.64,13.58H162.94V679Zm0,84.82q15.39,0,25.22-11t9.83-27q0-16.06-9.83-27t-25.22-11H172.31v76Z"/><path class="cls-9" d="M268.63,763.79h45.48v8.83H259.26V679h54.18v8.83H268.63V721H310.1v8.83H268.63Z"/><path class="cls-9" d="M359.6,774.23q-12.84,0-22-6.09a31.76,31.76,0,0,1-12.78-16.79l8-4.68a24.64,24.64,0,0,0,9.37,13.58q6.82,4.88,17.52,4.88,10.44,0,16.26-4.62a14.83,14.83,0,0,0,5.82-12.24q0-7.35-5.36-11.1t-17.65-7.76q-14.6-4.81-19.27-7.76-10.71-6.42-10.7-18.6,0-11.89,8.29-18.79t20.47-6.89a32,32,0,0,1,19,5.68,34.47,34.47,0,0,1,11.9,14.52L380.6,702q-6.42-15.51-23-15.52-8.7,0-14,4.29t-5.35,11.9q0,7,4.82,10.44t15.92,7.09q5.08,1.74,7.29,2.47c1.47.49,3.61,1.3,6.42,2.41a41.09,41.09,0,0,1,6.22,2.94q2,1.28,4.89,3.48a15.82,15.82,0,0,1,4.14,4.42,27.28,27.28,0,0,1,2.28,5.35,22,22,0,0,1,1,6.75q0,11.91-8.69,19.07T359.6,774.23Z"/><path class="cls-9" d="M406.56,679h9.36v93.65h-9.36Z"/><path class="cls-9" d="M526.83,728.07v4.82a39.15,39.15,0,0,1-12.45,29.36q-12.44,12-33.31,12-21.27,0-35.18-14.05T432,725.8q0-20.34,13.92-34.39t35.18-14a46.56,46.56,0,0,1,23.82,6.29,44.29,44.29,0,0,1,16.72,16.72l-8.3,4.81a33.26,33.26,0,0,0-13.11-13.64,37.21,37.21,0,0,0-19.13-5.09q-17.52,0-28.63,11.38t-11.1,28q0,16.59,11.1,28t28.63,11.37q15.78,0,25.29-8a29.71,29.71,0,0,0,10.83-20.27H480v-8.83Z"/><path class="cls-9" d="M603.08,679h9.36v93.65h-8l-52.18-76.26v76.26h-9.36V679H551l52,76.06Z"/><path class="cls-9" d="M199.06,811.93q19.13,0,31.64,13.58t12.51,33.24q0,19.66-12.51,33.25t-31.64,13.58H162.94V811.93Zm0,84.82q15.39,0,25.22-11t9.83-27q0-16.05-9.83-27t-25.22-11H172.31v76Z"/><path class="cls-9" d="M268.63,896.75h45.48v8.83H259.26V811.93h54.18v8.83H268.63v33.18H310.1v8.83H268.63Z"/><path class="cls-9" d="M419,861v4.81a39.19,39.19,0,0,1-12.44,29.37q-12.45,12-33.32,12-21.27,0-35.18-14t-13.91-34.39q0-20.32,13.91-34.38t35.18-14a46.64,46.64,0,0,1,23.82,6.29,44.43,44.43,0,0,1,16.72,16.72l-8.29,4.82a33.32,33.32,0,0,0-13.11-13.64,37.25,37.25,0,0,0-19.14-5.09q-17.52,0-28.62,11.37t-11.11,28q0,16.59,11.11,28t28.62,11.37q15.79,0,25.29-8a29.79,29.79,0,0,0,10.84-20.27h-37.2V861Z"/><path class="cls-9" d="M492.58,905.58l-21.86-37.46h-26.3v37.46h-9.37V811.93h37.46a28.09,28.09,0,0,1,22.41,45,27.39,27.39,0,0,1-14.52,10l22.88,38.67Zm-48.16-84.82v38.53h28.09a17.72,17.72,0,0,0,13.24-5.69,19.61,19.61,0,0,0,0-27.22,17.8,17.8,0,0,0-13.24-5.62Z"/><path class="cls-9" d="M526,896.75h45.49v8.83H516.65V811.93h54.19v8.83H526v33.18h41.47v8.83H526Z"/><path class="cls-9" d="M596.93,896.75h45.48v8.83H587.56V811.93h54.18v8.83H596.93v33.18H638.4v8.83H596.93Z"/><path class="cls-9" d="M192.37,1040.14q-12.84,0-22-6.09a31.72,31.72,0,0,1-12.78-16.79l8-4.68a24.59,24.59,0,0,0,9.36,13.58q6.83,4.89,17.53,4.88,10.43,0,16.25-4.61a14.85,14.85,0,0,0,5.82-12.24q0-7.37-5.35-11.11t-17.66-7.76q-14.58-4.82-19.26-7.76Q161.6,981.14,161.6,969q0-11.91,8.3-18.8t20.47-6.89a32,32,0,0,1,19,5.69,34.6,34.6,0,0,1,11.91,14.51l-7.89,4.42q-6.42-15.52-23-15.52-8.7,0-14.05,4.28T171,968.57q0,7,4.81,10.43t15.92,7.09q5.09,1.74,7.29,2.48t6.43,2.4a40,40,0,0,1,6.22,2.95c1.34.85,3,2,4.88,3.48a15.71,15.71,0,0,1,4.15,4.41,28.2,28.2,0,0,1,2.27,5.35,22.1,22.1,0,0,1,1,6.76q0,11.91-8.69,19.06T192.37,1040.14Z"/><path class="cls-9" d="M299.53,944.89h9.37v93.64h-9.37V994.79H248.69v43.74h-9.36V944.89h9.36V986h50.84Z"/><path class="cls-9" d="M407.76,1026q-14,14.12-34.38,14.11T339,1026a48.93,48.93,0,0,1,0-68.63q14-14.11,34.38-14.12t34.38,14.12a48.93,48.93,0,0,1,0,68.63Zm-62.21-6.43Q356.79,1031,373.38,1031t27.83-11.44a40.25,40.25,0,0,0,0-55.78Q390,952.38,373.38,952.38t-27.83,11.44a40.22,40.22,0,0,0,0,55.78Z"/><path class="cls-9" d="M454,1038.53l-26.84-93.64h9.89l23.15,80.92,24.35-80.92h11l24.39,81,23.07-81h9.47l-26.72,93.64H514.52l-24.47-81.29-24.47,81.29Z"/></svg>