<svg id="Layer_1" data-name="Layer 1" xmlns="http://www.w3.org/2000/svg" viewBox="0 0 800 800"><defs><style>.cls-1{fill:#f2db36;}.cls-2{fill:#279330;}.cls-3{fill:#29abe2;}.cls-4{fill:#9241a5;}.cls-5{fill:#c1272d;}.cls-6{fill:#4f3470;}.cls-7{fill:#a82932;}.cls-8{fill:#fff;}</style></defs><title>DDS_Fav</title><path class="cls-1" d="M417.63,214.08a238.44,238.44,0,0,0-45.73-4.4H246.84V529A238.63,238.63,0,0,1,195,534.65H69.93V59.57H195C297,59.57,384,123.83,417.63,214.08Z"/><path class="cls-2" d="M432.54,297.11a237.37,237.37,0,0,1-12.62,76.61v0l-.15.3c-.41.86-.82,1.73-1.21,2.59-.83,1.79-1.64,3.59-2.39,5.4q-2.58,6.08-4.72,12.28c-.35,1-.69,2-1,3a.05.05,0,0,0,0,.05A238,238,0,0,1,246.84,529V209.68H371.9a238.44,238.44,0,0,1,45.73,4.4A237.08,237.08,0,0,1,432.54,297.11Z"/><path class="cls-3" d="M368,683.12c.53.53,1.09,1.1,1.66,1.62H246.84V529A238,238,0,0,0,410.41,397.36c-.11.35-.22.71-.34,1.08-.27.84-.54,1.68-.79,2.53-.38,1.22-.74,2.45-1.08,3.68-.64,2.24-1.23,4.49-1.79,6.75a.17.17,0,0,0,0,.07c-.14.55-.28,1.09-.39,1.64-.24,1-.45,1.93-.67,2.88-.23,1.13-.47,2.25-.69,3.39s-.46,2.3-.66,3.44c-.09.48-.18,1-.26,1.43-.16.93-.31,1.85-.46,2.78s-.28,1.78-.4,2.66c0,.11,0,.22-.05.32-.09.61-.17,1.21-.24,1.81-.17,1.12-.3,2.26-.42,3.37-.11.88-.2,1.75-.29,2.63-.12,1.12-.22,2.25-.31,3.37-.05.51-.09,1-.13,1.51-.16,2.18-.29,4.35-.37,6.54,0,.4,0,.81-.05,1.2,0,1-.07,2.1-.09,3.14,0,1.27,0,2.53,0,3.8a192.25,192.25,0,0,0,56.46,136.35Z"/><path class="cls-2" d="M410.44,397.31c-.13.37-.25.75-.37,1.13.12-.37.23-.73.34-1.08A.05.05,0,0,1,410.44,397.31Z"/><path class="cls-3" d="M534.3,273.86a192.65,192.65,0,0,0-77,47.17q-3.07,3.08-6,6.26c-.66.73-1.33,1.47-2,2.21s-1.46,1.66-2.18,2.5c-.51.6-1,1.19-1.51,1.79-.8,1-1.59,1.92-2.37,2.89-.66.81-1.29,1.6-1.92,2.42-.29.36-.56.73-.84,1.09-.51.67-1,1.33-1.53,2l-.86,1.16c-.53.72-1,1.43-1.56,2.16s-.84,1.17-1.24,1.78c-1,1.39-2,2.81-2.87,4.23-.4.58-.78,1.16-1.14,1.75-.87,1.35-1.73,2.71-2.54,4.06-.48.78-.95,1.56-1.4,2.34s-1,1.7-1.47,2.55c-.25.43-.49.86-.73,1.3-.45.8-.91,1.61-1.33,2.43-.23.41-.46.83-.67,1.25l-.26.49c-1.05,2-2.05,4-3,6a238.74,238.74,0,0,0-2.29-159.64A236.83,236.83,0,0,1,534.3,273.86Z"/><path class="cls-4" d="M609.35,441.72l-152,152a192.25,192.25,0,0,1-56.46-136.35c0-1.27,0-2.53,0-3.8,0-1,.05-2.1.09-3.14,0-.39,0-.8.05-1.2.08-2.19.21-4.36.37-6.54,0-.5.08-1,.13-1.51.09-1.12.19-2.25.31-3.37.09-.88.18-1.75.29-2.63.12-1.11.25-2.25.42-3.37.07-.6.15-1.2.24-1.81,0-.1,0-.21.05-.32.12-.88.26-1.78.4-2.66s.3-1.85.46-2.78c.08-.47.17-.95.26-1.43.2-1.14.41-2.3.66-3.44s.46-2.26.69-3.39c.22-.95.43-1.92.67-2.88.11-.55.25-1.09.39-1.64a.17.17,0,0,1,0-.07c.56-2.26,1.15-4.51,1.79-6.75.34-1.23.7-2.46,1.08-3.68.25-.85.52-1.69.79-2.53.12-.38.24-.76.37-1.13.32-1,.66-2,1-3q2.13-6.19,4.72-12.28c.75-1.81,1.56-3.61,2.39-5.4.39-.86.8-1.73,1.21-2.59l.15-.3v0c1-2,2-4,3-6l.26-.49c.21-.42.44-.84.67-1.25.42-.82.88-1.63,1.33-2.43.24-.44.48-.87.73-1.3.48-.85,1-1.71,1.47-2.55s.92-1.56,1.4-2.34c.81-1.35,1.67-2.71,2.54-4.06.36-.58.75-1.17,1.14-1.75.92-1.42,1.89-2.84,2.87-4.23.4-.6.82-1.19,1.24-1.78s1-1.44,1.56-2.16l.86-1.16c.5-.68,1-1.34,1.53-2,.28-.36.55-.73.84-1.09.63-.82,1.26-1.61,1.92-2.42.78-1,1.57-1.93,2.37-2.89.49-.6,1-1.19,1.51-1.79.72-.84,1.43-1.67,2.18-2.5s1.32-1.48,2-2.21q2.93-3.19,6-6.26a192.65,192.65,0,0,1,77-47.17A236.85,236.85,0,0,1,609.35,441.72Z"/><path class="cls-4" d="M410.44,397.31c-.13.37-.25.75-.37,1.13.12-.37.23-.73.34-1.08A.05.05,0,0,1,410.44,397.31Z"/><path class="cls-5" d="M730.07,321l-89.39,89.35-31.33,31.34A236.85,236.85,0,0,0,534.3,273.86,192.85,192.85,0,0,1,730.07,321Z"/><path class="cls-6" d="M609.44,447.2c0,131.2-106.35,237.54-237.54,237.54h-2.28c-.57-.52-1.13-1.09-1.66-1.62l89.38-89.39,152-152C609.41,443.56,609.44,445.38,609.44,447.2Z"/><path class="cls-7" d="M640.68,410.38l-31.33,31.34c.06,1.84.09,3.66.09,5.48,0,131.2-106.35,237.54-237.54,237.54h-2.28c75.44,73.7,206.48,74.8,281.26,0a174.8,174.8,0,0,0,17.51-20.39V600.74l-20.53,5.83-4.08-14.26,26.79-9.47h14.55v53.48C719.8,563.4,701.42,471.15,640.68,410.38ZM638,684.74H570.84v-13.1l35.53-36.24q13-13,13-22.42c0-5-1.47-8.82-4.44-11.58a15.85,15.85,0,0,0-11.28-4.15q-12.81,0-18.93,12.67l-14.12-8.3a34.73,34.73,0,0,1,13.55-15.44A37,37,0,0,1,603.45,581a33.74,33.74,0,0,1,23,8.44q9.6,8.45,9.61,23,0,15.5-17.51,33l-23.12,23.17H638Z"/><path class="cls-8" d="M638,668.58v16.16H570.84v-13.1l35.53-36.24q13-13,13-22.42c0-5-1.47-8.82-4.44-11.58a15.85,15.85,0,0,0-11.28-4.15q-12.81,0-18.93,12.67l-14.12-8.3a34.73,34.73,0,0,1,13.55-15.44A37,37,0,0,1,603.45,581a33.74,33.74,0,0,1,23,8.44q9.6,8.45,9.61,23,0,15.5-17.51,33l-23.12,23.17Z"/><path class="cls-8" d="M685.12,582.84v53.48a172.48,172.48,0,0,1-16.73,28V600.74l-20.53,5.83-4.08-14.26,26.79-9.47Z"/></svg>