<?xml version="1.0" encoding="utf-8"?>
<!-- Generator: Adobe Illustrator 23.0.0, SVG Export Plug-In . SVG Version: 6.00 Build 0)  -->
<svg version="1.1" id="Layer_1" xmlns="http://www.w3.org/2000/svg" xmlns:xlink="http://www.w3.org/1999/xlink" x="0px" y="0px"
	 viewBox="0 0 1920 1080" style="enable-background:new 0 0 1920 1080;" xml:space="preserve">
<style type="text/css">
	.st0{fill:#F2DB36;}
	.st1{fill:#279330;}
	.st2{fill:#29ABE2;}
	.st3{fill:#9241A5;}
	.st4{fill:#C1272D;}
	.st5{fill:#4F3470;}
	.st6{fill:#A82932;}
	.st7{fill:#FFFFFF;}
	.st8{fill:#353535;}
</style>
<g>
	<g>
		<g>
			<g>
				<path class="st0" d="M686.11,365.59c-11.77-2.3-23.93-3.5-36.37-3.5h-99.45v253.92c-13.27,2.95-27.06,4.51-41.22,4.51h-99.46
					v-377.8h99.46C590.16,242.72,659.33,293.82,686.11,365.59z"/>
			</g>
		</g>
	</g>
	<g>
		<g>
			<g>
				<path class="st1" d="M697.97,431.62c0,21.31-3.53,41.81-10.04,60.92c-0.01,0.01-0.01,0.01-0.01,0.02
					c-0.04,0.08-0.08,0.16-0.12,0.24c-0.32,0.68-0.65,1.37-0.96,2.06c-0.66,1.42-1.3,2.85-1.9,4.29c-1.37,3.22-2.62,6.48-3.75,9.77
					c-0.28,0.79-0.55,1.58-0.8,2.38c-0.01,0.01-0.02,0.03-0.02,0.04c-24.45,52.45-72.27,91.8-130.08,104.67V362.09h99.45
					c12.44,0,24.6,1.2,36.37,3.5C693.78,386.14,697.97,408.39,697.97,431.62z"/>
				<g>
					<path class="st2" d="M646.61,738.59c0.42,0.42,0.87,0.87,1.32,1.29h-97.64V616.01c57.81-12.87,105.63-52.22,130.08-104.67
						c-0.09,0.28-0.18,0.57-0.27,0.86c-0.22,0.67-0.43,1.34-0.63,2.01c-0.3,0.97-0.59,1.95-0.86,2.93
						c-0.51,1.78-0.98,3.57-1.42,5.37c-0.01,0.02-0.01,0.03-0.01,0.05c-0.11,0.44-0.22,0.87-0.31,1.31
						c-0.19,0.76-0.36,1.53-0.53,2.29c-0.19,0.9-0.38,1.79-0.55,2.69c-0.2,0.91-0.37,1.83-0.53,2.74c-0.07,0.38-0.14,0.76-0.2,1.14
						c-0.13,0.74-0.25,1.47-0.37,2.21c-0.11,0.7-0.22,1.41-0.32,2.11c-0.01,0.09-0.03,0.18-0.04,0.26
						c-0.07,0.48-0.13,0.96-0.19,1.44c-0.13,0.89-0.24,1.79-0.33,2.68c-0.09,0.7-0.16,1.39-0.23,2.09c-0.1,0.89-0.18,1.79-0.25,2.68
						c-0.04,0.4-0.07,0.8-0.1,1.2c-0.13,1.73-0.23,3.46-0.3,5.2c-0.02,0.32-0.03,0.64-0.04,0.95c-0.03,0.83-0.05,1.67-0.07,2.5
						c-0.02,1.01-0.03,2.01-0.03,3.02c0,39.25,14.97,78.49,44.9,108.43L646.61,738.59z"/>
				</g>
				<path class="st1" d="M680.39,511.3c-0.1,0.3-0.2,0.6-0.29,0.9c0.09-0.29,0.18-0.58,0.27-0.86
					C680.37,511.33,680.38,511.31,680.39,511.3z"/>
				<g>
					<path class="st2" d="M778.89,413.13c-22.36,7.25-43.41,19.73-61.2,37.51c-1.63,1.63-3.22,3.29-4.77,4.98
						c-0.53,0.58-1.06,1.17-1.58,1.76c-0.59,0.66-1.16,1.32-1.73,1.99c-0.41,0.47-0.81,0.94-1.2,1.42c-0.64,0.76-1.27,1.53-1.89,2.3
						c-0.52,0.64-1.02,1.27-1.52,1.92c-0.23,0.29-0.45,0.58-0.67,0.87c-0.41,0.53-0.82,1.06-1.22,1.6
						c-0.23,0.31-0.45,0.61-0.68,0.92c-0.42,0.57-0.83,1.14-1.24,1.72c-0.33,0.47-0.67,0.93-0.99,1.41
						c-0.78,1.11-1.55,2.24-2.28,3.37c-0.32,0.46-0.62,0.92-0.91,1.39c-0.69,1.07-1.37,2.15-2.02,3.23
						c-0.38,0.62-0.75,1.24-1.11,1.86c-0.4,0.67-0.79,1.35-1.17,2.03c-0.2,0.34-0.39,0.68-0.58,1.03c-0.36,0.64-0.72,1.28-1.06,1.93
						c-0.18,0.33-0.36,0.66-0.53,1c-0.07,0.13-0.14,0.26-0.21,0.39c-0.83,1.58-1.63,3.17-2.4,4.78
						c6.51-19.11,10.04-39.61,10.04-60.92c0-23.23-4.19-45.48-11.86-66.03C721.6,372.51,753.53,389.36,778.89,413.13z"/>
				</g>
			</g>
		</g>
	</g>
	<g>
		<g>
			<path class="st3" d="M838.57,546.62L717.69,667.5c-29.93-29.94-44.9-69.18-44.9-108.43c0-1.01,0.01-2.01,0.03-3.02
				c0.02-0.83,0.04-1.67,0.07-2.5c0.01-0.31,0.02-0.63,0.04-0.95c0.07-1.74,0.17-3.47,0.3-5.2c0.03-0.4,0.06-0.8,0.1-1.2
				c0.07-0.89,0.15-1.79,0.25-2.68c0.07-0.7,0.14-1.39,0.23-2.09c0.09-0.89,0.2-1.79,0.33-2.68c0.06-0.48,0.12-0.96,0.19-1.44
				c0.01-0.08,0.03-0.17,0.04-0.26c0.1-0.7,0.21-1.41,0.32-2.11c0.12-0.74,0.24-1.47,0.37-2.21c0.06-0.38,0.13-0.76,0.2-1.14
				c0.16-0.91,0.33-1.83,0.53-2.74c0.17-0.9,0.36-1.79,0.55-2.69c0.17-0.76,0.34-1.53,0.53-2.29c0.09-0.44,0.2-0.87,0.31-1.31
				c0-0.02,0-0.03,0.01-0.05c0.44-1.8,0.91-3.59,1.42-5.37c0.27-0.98,0.56-1.96,0.86-2.93c0.2-0.67,0.41-1.34,0.63-2.01
				c0.09-0.3,0.19-0.6,0.29-0.9c0.26-0.8,0.53-1.59,0.8-2.38c1.13-3.29,2.38-6.55,3.75-9.77c0.6-1.44,1.24-2.87,1.9-4.29
				c0.31-0.69,0.64-1.38,0.96-2.06c0.04-0.08,0.08-0.16,0.12-0.24c0-0.01,0-0.01,0.01-0.02c0.77-1.61,1.57-3.2,2.4-4.78
				c0.07-0.13,0.14-0.26,0.21-0.39c0.17-0.34,0.35-0.67,0.53-1c0.34-0.65,0.7-1.29,1.06-1.93c0.19-0.35,0.38-0.69,0.58-1.03
				c0.38-0.68,0.77-1.36,1.17-2.03c0.36-0.62,0.73-1.24,1.11-1.86c0.65-1.08,1.33-2.16,2.02-3.23c0.29-0.46,0.6-0.93,0.91-1.39
				c0.73-1.13,1.5-2.26,2.28-3.37c0.32-0.47,0.65-0.94,0.99-1.41c0.41-0.58,0.82-1.15,1.24-1.72c0.23-0.31,0.45-0.61,0.68-0.92
				c0.4-0.54,0.81-1.07,1.22-1.6c0.22-0.29,0.44-0.58,0.67-0.87c0.5-0.65,1-1.28,1.52-1.92c0.62-0.77,1.25-1.54,1.89-2.3
				c0.39-0.48,0.79-0.95,1.2-1.42c0.57-0.67,1.14-1.33,1.73-1.99c0.52-0.59,1.05-1.18,1.58-1.76c1.55-1.69,3.14-3.35,4.77-4.98
				c17.79-17.78,38.84-30.26,61.2-37.51C814.68,446.71,837.39,493.99,838.57,546.62z"/>
			<path class="st3" d="M680.39,511.3c-0.1,0.3-0.2,0.6-0.29,0.9c0.09-0.29,0.18-0.58,0.27-0.86
				C680.37,511.33,680.38,511.31,680.39,511.3z"/>
		</g>
	</g>
	<g>
		<g>
			<g>
				<path class="st4" d="M934.57,450.64l-71.08,71.06l-24.92,24.92c-1.18-52.63-23.89-99.91-59.68-133.49
					C831.95,396.02,892.46,408.52,934.57,450.64z"/>
			</g>
		</g>
	</g>
	<g>
		<g>
			<path class="st5" d="M838.64,550.98c0,104.33-84.57,188.9-188.9,188.9h-1.81c-0.45-0.42-0.9-0.87-1.32-1.29l71.08-71.09
				l120.88-120.88C838.62,548.08,838.64,549.53,838.64,550.98z"/>
		</g>
	</g>
	<g>
		<g>
			<path class="st6" d="M863.49,521.7l-24.92,24.92c0.05,1.46,0.07,2.91,0.07,4.36c0,104.33-84.57,188.9-188.9,188.9h-1.81
				c59.99,58.61,164.2,59.48,223.67,0c5.14-5.14,9.78-10.56,13.92-16.22v-50.58l-16.32,4.63l-3.25-11.34l21.31-7.53h11.57v42.53
				C926.41,643.38,911.79,570.02,863.49,521.7z M861.32,739.88h-53.37v-10.42l28.25-28.82c6.87-6.87,10.3-12.81,10.3-17.83
				c0-3.94-1.17-7.01-3.53-9.21c-2.35-2.2-5.34-3.3-8.97-3.3c-6.79,0-11.81,3.36-15.05,10.08l-11.23-6.6
				c2.55-5.4,6.14-9.5,10.77-12.28c4.63-2.77,9.76-4.16,15.39-4.16c7.1,0,13.2,2.24,18.3,6.71c5.09,4.48,7.64,10.58,7.64,18.29
				c0,8.22-4.64,16.97-13.92,26.26l-18.39,18.43h33.81V739.88z"/>
		</g>
	</g>
	<g>
		<path class="st7" d="M861.32,727.03v12.85h-53.37v-10.42l28.25-28.82c6.87-6.87,10.3-12.81,10.3-17.83c0-3.94-1.17-7.01-3.53-9.21
			c-2.35-2.2-5.34-3.3-8.97-3.3c-6.79,0-11.81,3.36-15.05,10.08l-11.23-6.6c2.55-5.4,6.14-9.5,10.77-12.28
			c4.63-2.77,9.76-4.16,15.39-4.16c7.1,0,13.2,2.24,18.3,6.71c5.09,4.48,7.64,10.58,7.64,18.29c0,8.22-4.64,16.97-13.92,26.26
			l-18.39,18.43H861.32z"/>
		<path class="st7" d="M898.83,658.84v42.53c-3.68,7.74-8.11,15.2-13.31,22.29v-50.58l-16.32,4.63l-3.25-11.34l21.31-7.53H898.83z"
			/>
	</g>
	<g>
		<path class="st8" d="M1049.3,337.97c12.75,0,23.3,4.53,31.64,13.58c8.34,9.05,12.51,20.13,12.51,33.24s-4.17,24.19-12.51,33.24
			c-8.34,9.05-18.89,13.58-31.64,13.58h-36.12v-93.65H1049.3z M1049.3,422.79c10.26,0,18.66-3.66,25.22-10.97
			c6.55-7.31,9.83-16.32,9.83-27.02s-3.28-19.71-9.83-27.02c-6.56-7.31-14.96-10.97-25.22-10.97h-26.76v75.99H1049.3z"/>
		<path class="st8" d="M1118.87,422.79h45.49v8.83h-54.85v-93.65h54.18v8.83h-44.82v33.18h41.47v8.83h-41.47V422.79z"/>
		<path class="st8" d="M1209.84,433.23c-8.56,0-15.9-2.03-22.01-6.09c-6.11-4.06-10.37-9.65-12.78-16.79l8.03-4.68
			c1.69,5.8,4.82,10.32,9.37,13.58c4.55,3.26,10.39,4.88,17.53,4.88c6.96,0,12.38-1.54,16.25-4.62c3.88-3.08,5.82-7.16,5.82-12.24
			c0-4.9-1.79-8.61-5.35-11.1c-3.57-2.5-9.46-5.08-17.66-7.76c-9.72-3.21-16.14-5.8-19.26-7.76c-7.14-4.28-10.7-10.48-10.7-18.6
			c0-7.94,2.76-14.2,8.29-18.8c5.53-4.59,12.35-6.89,20.47-6.89c7.31,0,13.65,1.9,19,5.69c5.35,3.79,9.32,8.63,11.91,14.52
			l-7.89,4.42c-4.28-10.35-11.95-15.52-23.01-15.52c-5.8,0-10.48,1.43-14.05,4.28c-3.57,2.86-5.35,6.82-5.35,11.91
			c0,4.64,1.61,8.12,4.82,10.44c3.21,2.32,8.52,4.68,15.92,7.09c3.39,1.16,5.82,1.99,7.29,2.47c1.47,0.49,3.61,1.29,6.42,2.41
			c2.81,1.12,4.88,2.1,6.22,2.94c1.34,0.85,2.96,2.01,4.88,3.48c1.92,1.47,3.3,2.94,4.15,4.42c0.85,1.47,1.61,3.26,2.27,5.35
			c0.67,2.1,1,4.35,1,6.76c0,7.94-2.9,14.29-8.7,19.06C1226.92,430.84,1219.29,433.23,1209.84,433.23z"/>
		<path class="st8" d="M1256.8,337.97h9.37v93.65h-9.37V337.97z"/>
		<path class="st8" d="M1377.07,387.07v4.82c0,11.6-4.15,21.38-12.44,29.37c-8.29,7.98-19.4,11.97-33.31,11.97
			c-14.18,0-25.91-4.68-35.18-14.05c-9.28-9.36-13.91-20.82-13.91-34.38c0-13.56,4.64-25.02,13.91-34.38
			c9.27-9.36,21-14.05,35.18-14.05c8.65,0,16.59,2.1,23.81,6.29c7.22,4.19,12.8,9.77,16.72,16.72l-8.29,4.82
			c-2.94-5.71-7.31-10.26-13.11-13.65c-5.8-3.39-12.17-5.08-19.13-5.08c-11.68,0-21.23,3.79-28.63,11.37
			c-7.4,7.58-11.1,16.9-11.1,27.96c0,11.06,3.7,20.38,11.1,27.96c7.4,7.58,16.94,11.37,28.63,11.37c10.52,0,18.95-2.65,25.29-7.96
			c6.33-5.31,9.94-12.06,10.84-20.27h-37.19v-8.83H1377.07z"/>
		<path class="st8" d="M1453.32,337.97h9.37v93.65h-8.03l-52.17-76.26v76.26h-9.37v-93.65h8.16l52.04,76.06V337.97z"/>
		<path class="st8" d="M1049.3,470.93c12.75,0,23.3,4.53,31.64,13.58c8.34,9.05,12.51,20.13,12.51,33.25
			c0,13.11-4.17,24.19-12.51,33.24c-8.34,9.05-18.89,13.58-31.64,13.58h-36.12v-93.65H1049.3z M1049.3,555.75
			c10.26,0,18.66-3.66,25.22-10.97c6.55-7.31,9.83-16.32,9.83-27.02c0-10.7-3.28-19.71-9.83-27.02
			c-6.56-7.31-14.96-10.97-25.22-10.97h-26.76v75.99H1049.3z"/>
		<path class="st8" d="M1118.87,555.75h45.49v8.83h-54.85v-93.65h54.18v8.83h-44.82v33.18h41.47v8.83h-41.47V555.75z"/>
		<path class="st8" d="M1269.24,520.03v4.82c0,11.6-4.15,21.38-12.44,29.37c-8.29,7.98-19.4,11.97-33.31,11.97
			c-14.18,0-25.91-4.68-35.18-14.05c-9.28-9.37-13.91-20.82-13.91-34.38c0-13.56,4.64-25.02,13.91-34.38
			c9.27-9.36,21-14.05,35.18-14.05c8.65,0,16.59,2.1,23.81,6.29c7.22,4.19,12.8,9.77,16.72,16.72l-8.29,4.82
			c-2.94-5.71-7.31-10.26-13.11-13.65c-5.8-3.39-12.17-5.08-19.13-5.08c-11.68,0-21.23,3.79-28.63,11.37
			c-7.4,7.58-11.1,16.9-11.1,27.96c0,11.06,3.7,20.38,11.1,27.96c7.4,7.58,16.94,11.37,28.63,11.37c10.52,0,18.95-2.65,25.29-7.96
			c6.33-5.3,9.94-12.06,10.84-20.27h-37.19v-8.83H1269.24z"/>
		<path class="st8" d="M1342.82,564.58l-21.85-37.46h-26.31v37.46h-9.37v-93.65h37.46c7.76,0,14.38,2.74,19.87,8.23
			c5.49,5.49,8.23,12.11,8.23,19.87c0,6.33-1.9,11.97-5.69,16.92c-3.79,4.95-8.63,8.27-14.51,9.96l22.88,38.67H1342.82z
			 M1294.66,479.76v38.53h28.09c5.17,0,9.59-1.89,13.25-5.69c3.66-3.79,5.48-8.32,5.48-13.58c0-5.35-1.83-9.9-5.48-13.65
			c-3.66-3.75-8.07-5.62-13.25-5.62H1294.66z"/>
		<path class="st8" d="M1376.26,555.75h45.49v8.83h-54.85v-93.65h54.18v8.83h-44.82v33.18h41.47v8.83h-41.47V555.75z"/>
		<path class="st8" d="M1447.17,555.75h45.49v8.83h-54.85v-93.65h54.18v8.83h-44.82v33.18h41.47v8.83h-41.47V555.75z"/>
		<path class="st8" d="M1042.61,699.14c-8.56,0-15.9-2.03-22.01-6.09c-6.11-4.06-10.37-9.65-12.78-16.79l8.03-4.68
			c1.69,5.8,4.82,10.32,9.37,13.58c4.55,3.26,10.39,4.88,17.53,4.88c6.96,0,12.38-1.54,16.25-4.62c3.88-3.08,5.82-7.16,5.82-12.24
			c0-4.9-1.79-8.61-5.35-11.1c-3.57-2.5-9.46-5.08-17.66-7.76c-9.72-3.21-16.14-5.8-19.26-7.76c-7.14-4.28-10.7-10.48-10.7-18.6
			c0-7.94,2.76-14.2,8.29-18.8c5.53-4.59,12.35-6.89,20.47-6.89c7.31,0,13.65,1.9,19,5.69c5.35,3.79,9.32,8.63,11.91,14.52
			l-7.89,4.42c-4.28-10.35-11.95-15.52-23.01-15.52c-5.8,0-10.48,1.43-14.05,4.28c-3.57,2.86-5.35,6.82-5.35,11.91
			c0,4.64,1.61,8.12,4.82,10.43c3.21,2.32,8.52,4.68,15.92,7.09c3.39,1.16,5.82,1.99,7.29,2.47c1.47,0.49,3.61,1.29,6.42,2.41
			c2.81,1.12,4.88,2.1,6.22,2.94c1.34,0.85,2.96,2.01,4.88,3.48c1.92,1.47,3.3,2.94,4.15,4.41c0.85,1.47,1.61,3.26,2.27,5.35
			c0.67,2.1,1,4.35,1,6.76c0,7.94-2.9,14.29-8.7,19.06C1059.69,696.75,1052.07,699.14,1042.61,699.14z"/>
		<path class="st8" d="M1149.77,603.89h9.37v93.65h-9.37v-43.75h-50.84v43.75h-9.37v-93.65h9.37v41.07h50.84V603.89z"/>
		<path class="st8" d="M1258,685.03c-9.36,9.41-20.83,14.11-34.38,14.11c-13.56,0-25.02-4.7-34.38-14.11
			c-9.37-9.41-14.05-20.85-14.05-34.31c0-13.47,4.68-24.91,14.05-34.32c9.36-9.41,20.82-14.11,34.38-14.11
			c13.56,0,25.02,4.71,34.38,14.11c9.37,9.41,14.05,20.85,14.05,34.32C1272.05,664.18,1267.37,675.62,1258,685.03z M1195.79,678.6
			c7.49,7.63,16.77,11.44,27.83,11.44c11.06,0,20.33-3.81,27.83-11.44c7.49-7.63,11.24-16.92,11.24-27.89
			c0-10.97-3.75-20.27-11.24-27.89c-7.49-7.63-16.77-11.44-27.83-11.44c-11.06,0-20.33,3.81-27.83,11.44
			c-7.49,7.63-11.24,16.92-11.24,27.89C1184.55,661.68,1188.3,670.98,1195.79,678.6z"/>
		<path class="st8" d="M1304.24,697.53l-26.84-93.65h9.89l23.15,80.92l24.35-80.92h11l24.39,81.03l23.07-81.03h9.47L1376,697.53
			h-11.24l-24.47-81.29l-24.46,81.29H1304.24z"/>
	</g>
</g>
</svg>
