<svg id="Layer_1" data-name="Layer 1" xmlns="http://www.w3.org/2000/svg" viewBox="0 0 800 800"><defs><style>.cls-1{fill:#f2db36;}.cls-2{fill:#279330;}.cls-3{fill:#29abe2;}.cls-4{fill:#9241a5;}.cls-5{fill:#c1272d;}.cls-6{fill:#4f3470;}.cls-7{fill:#a82932;}.cls-8{fill:#fff;}</style></defs><title>DDS_SVG_Logo</title><path class="cls-1" d="M420.12,187.8a271.21,271.21,0,0,0-52.2-5H225.19V547.21A272.62,272.62,0,0,1,166,553.68H23.28V11.45H166C282.41,11.45,381.69,84.79,420.12,187.8Z"/><path class="cls-2" d="M437.14,282.56A270.56,270.56,0,0,1,422.73,370s0,0,0,0l-.17.34c-.46,1-.94,2-1.38,3-.95,2-1.87,4.09-2.73,6.16q-2.94,6.93-5.38,14c-.4,1.13-.79,2.27-1.15,3.42l0,.05A271.62,271.62,0,0,1,225.19,547.21V182.77H367.92a271.21,271.21,0,0,1,52.2,5A270.37,270.37,0,0,1,437.14,282.56Z"/><path class="cls-3" d="M363.43,723.14c.6.61,1.25,1.25,1.89,1.85H225.19V547.21A271.62,271.62,0,0,0,411.88,397c-.13.4-.25.82-.38,1.24-.32,1-.62,1.92-.91,2.88-.43,1.39-.84,2.8-1.23,4.21q-1.1,3.82-2,7.7a.22.22,0,0,0,0,.08c-.16.63-.32,1.25-.45,1.88-.27,1.09-.52,2.19-.76,3.28-.27,1.29-.55,2.57-.79,3.86s-.53,2.63-.76,3.94c-.1.54-.2,1.09-.29,1.63-.18,1.06-.36,2.11-.53,3.17s-.31,2-.46,3c0,.13,0,.26,0,.38-.11.69-.19,1.37-.28,2.06-.18,1.28-.34,2.57-.47,3.85-.13,1-.23,2-.33,3-.15,1.28-.26,2.57-.36,3.85-.06.57-.1,1.14-.14,1.72-.19,2.48-.33,5-.43,7.46,0,.46,0,.92-.06,1.36,0,1.2-.07,2.4-.1,3.59,0,1.45-.05,2.89-.05,4.34a219.42,219.42,0,0,0,64.45,155.62Z"/><path class="cls-2" d="M411.91,396.93c-.14.43-.28.86-.41,1.29.13-.42.25-.84.38-1.24Z"/><path class="cls-3" d="M553.28,256a219.75,219.75,0,0,0-87.83,53.83q-3.51,3.51-6.85,7.15c-.76.83-1.52,1.68-2.27,2.53s-1.66,1.89-2.48,2.85c-.59.68-1.16,1.35-1.72,2-.92,1.09-1.82,2.2-2.71,3.3-.75.92-1.47,1.82-2.19,2.76-.33.41-.64.83-1,1.25-.59.76-1.17,1.52-1.75,2.29l-1,1.32c-.61.82-1.2,1.64-1.78,2.47s-1,1.34-1.43,2c-1.11,1.59-2.22,3.21-3.27,4.83-.46.66-.89,1.32-1.3,2-1,1.53-2,3.08-2.9,4.63-.55.89-1.08,1.78-1.6,2.67s-1.13,1.94-1.68,2.92c-.28.48-.55,1-.83,1.47-.51.92-1,1.84-1.52,2.77-.26.48-.52.95-.76,1.44l-.3.56c-1.19,2.27-2.34,4.55-3.45,6.86a272.4,272.4,0,0,0-2.61-182.2A270.22,270.22,0,0,1,553.28,256Z"/><path class="cls-4" d="M638.94,447.62,465.45,621.11A219.42,219.42,0,0,1,401,465.49c0-1.45,0-2.89.05-4.34,0-1.19.06-2.39.1-3.59,0-.44,0-.9.06-1.36.1-2.5.24-5,.43-7.46,0-.58.08-1.15.14-1.72.1-1.28.21-2.57.36-3.85.1-1,.2-2,.33-3,.13-1.28.29-2.57.47-3.85.09-.69.17-1.37.28-2.06,0-.12,0-.25,0-.38.15-1,.3-2,.46-3s.35-2.11.53-3.17c.09-.54.19-1.09.29-1.63.23-1.31.47-2.63.76-3.94s.52-2.57.79-3.86c.24-1.09.49-2.19.76-3.28.13-.63.29-1.25.45-1.88a.22.22,0,0,1,0-.08q.94-3.87,2-7.7c.39-1.41.8-2.82,1.23-4.21.29-1,.59-1.92.91-2.88.13-.43.27-.86.41-1.29.38-1.15.76-2.29,1.15-3.42q2.43-7.08,5.38-14c.86-2.07,1.78-4.12,2.73-6.16.44-1,.92-2,1.38-3l.17-.34s0,0,0,0c1.11-2.31,2.26-4.59,3.45-6.86l.3-.56c.24-.49.5-1,.76-1.44.49-.93,1-1.85,1.52-2.77.28-.5.55-1,.83-1.47.55-1,1.11-2,1.68-2.92s1.05-1.78,1.6-2.67c.93-1.55,1.91-3.1,2.9-4.63.41-.66.86-1.34,1.3-2,1.05-1.62,2.16-3.24,3.27-4.83.46-.68.94-1.35,1.43-2s1.17-1.65,1.78-2.47l1-1.32c.58-.77,1.16-1.53,1.75-2.29.32-.42.63-.84,1-1.25.72-.94,1.44-1.84,2.19-2.76.89-1.1,1.79-2.21,2.71-3.3.56-.69,1.13-1.36,1.72-2,.82-1,1.64-1.91,2.48-2.85s1.51-1.7,2.27-2.53q3.34-3.63,6.85-7.15A219.75,219.75,0,0,1,553.28,256,270.3,270.3,0,0,1,638.94,447.62Z"/><path class="cls-4" d="M411.91,396.93c-.14.43-.28.86-.41,1.29.13-.42.25-.84.38-1.24Z"/><path class="cls-5" d="M776.72,309.86l-102,102-35.77,35.77A270.3,270.3,0,0,0,553.28,256,220.11,220.11,0,0,1,776.72,309.86Z"/><path class="cls-6" d="M639,453.88C639,603.62,517.66,725,367.92,725h-2.6c-.64-.6-1.29-1.24-1.89-1.85l102-102L638.94,447.62Q639,450.76,639,453.88Z"/><path class="cls-7" d="M674.71,411.85l-35.77,35.77q.1,3.13.1,6.26C639,603.62,517.66,725,367.92,725h-2.6c86.1,84.12,235.67,85.37,321,0a199.78,199.78,0,0,0,20-23.28V629.12l-23.43,6.65-4.66-16.28,30.58-10.81h16.61v61C765,586.49,744,481.2,674.71,411.85ZM671.59,725H595V710l40.55-41.36q14.79-14.79,14.78-25.59,0-8.49-5.06-13.22a18.11,18.11,0,0,0-12.88-4.74q-14.61,0-21.6,14.47l-16.12-9.48a39.66,39.66,0,0,1,15.46-17.62,42.19,42.19,0,0,1,22.09-6,38.48,38.48,0,0,1,26.26,9.63q11,9.65,11,26.25,0,17.7-20,37.69l-26.39,26.45h48.52Z"/><path class="cls-8" d="M671.59,706.55V725H595V710l40.55-41.36q14.79-14.79,14.78-25.59,0-8.49-5.06-13.22a18.11,18.11,0,0,0-12.88-4.74q-14.61,0-21.6,14.47l-16.12-9.48a39.66,39.66,0,0,1,15.46-17.62,42.19,42.19,0,0,1,22.09-6,38.48,38.48,0,0,1,26.26,9.63q11,9.65,11,26.25,0,17.7-20,37.69l-26.39,26.45Z"/><path class="cls-8" d="M725.43,608.68v61a197,197,0,0,1-19.1,32V629.12l-23.43,6.65-4.66-16.28,30.58-10.81Z"/></svg>