<svg width="143" height="277" viewBox="0 0 143 277" fill="none" xmlns="http://www.w3.org/2000/svg">
<path d="M75.3128 33.4586C72.1069 32.8323 68.7948 32.5055 65.4064 32.5055H38.3183V101.65C34.7038 102.454 30.9477 102.878 27.0908 102.878H0V0H27.0908C49.178 0 68.0185 13.915 75.3128 33.4586Z" fill="#F2DB36"/>
<path d="M78.5432 51.4392C78.5432 57.2421 77.5817 62.8244 75.8085 68.0283C75.8058 68.031 75.8058 68.031 75.8058 68.0337C75.7949 68.0555 75.784 68.0773 75.7731 68.0991C75.6859 68.2842 75.596 68.4721 75.5116 68.66C75.3318 69.0467 75.1575 69.4361 74.9941 69.8282C74.6209 70.7051 74.2804 71.5928 73.9727 72.4887C73.8964 72.7038 73.8228 72.9189 73.7548 73.1368C73.752 73.1395 73.7493 73.1449 73.7493 73.1477C67.0896 87.4303 54.0645 98.1456 38.3182 101.65V32.5056H65.4063C68.7947 32.5056 72.1069 32.8323 75.3128 33.4586C77.4019 39.0546 78.5432 45.1135 78.5432 51.4392Z" fill="#279330"/>
<path d="M64.5538 135.03C64.6682 135.144 64.7908 135.267 64.9133 135.381H38.3182V101.65C54.0645 98.1456 67.0896 87.4303 73.7493 73.1476C73.7248 73.2239 73.7003 73.3029 73.6758 73.3818C73.6158 73.5643 73.5586 73.7467 73.5042 73.9292C73.4224 74.1933 73.3435 74.4602 73.2699 74.727C73.131 75.2118 73.003 75.6992 72.8831 76.1893C72.8804 76.1948 72.8804 76.1975 72.8804 76.203C72.8504 76.3228 72.8205 76.4399 72.796 76.5597C72.7442 76.7666 72.6979 76.9763 72.6516 77.1833C72.5999 77.4283 72.5481 77.6707 72.5018 77.9158C72.4473 78.1636 72.401 78.4141 72.3574 78.6619C72.3384 78.7654 72.3193 78.8689 72.303 78.9723C72.2676 79.1738 72.2349 79.3726 72.2022 79.5741C72.1722 79.7648 72.1423 79.9581 72.115 80.1487C72.1123 80.1732 72.1069 80.1977 72.1041 80.2195C72.0851 80.3502 72.0687 80.4809 72.0524 80.6116C72.017 80.854 71.987 81.0991 71.9625 81.3414C71.938 81.532 71.9189 81.7199 71.8999 81.9106C71.8726 82.1529 71.8508 82.398 71.8318 82.6403C71.8209 82.7493 71.8127 82.8582 71.8045 82.9671C71.7691 83.4382 71.7419 83.9093 71.7228 84.3831C71.7174 84.4703 71.7146 84.5574 71.7119 84.6418C71.7037 84.8678 71.6983 85.0966 71.6928 85.3226C71.6874 85.5976 71.6847 85.8699 71.6847 86.145C71.6847 96.8331 75.7622 107.518 83.9145 115.671L64.5538 135.03Z" fill="#29ABE2"/>
<path d="M73.755 73.1367C73.7277 73.2187 73.7004 73.3007 73.6758 73.3826C73.7004 73.3034 73.725 73.2242 73.7496 73.1477C73.7496 73.1449 73.7523 73.1395 73.755 73.1367Z" fill="#279330"/>
<path d="M100.584 46.4042C94.4938 48.3784 88.7602 51.7769 83.9146 56.6185C83.4706 57.0624 83.0375 57.5144 82.6153 57.9746C82.471 58.1325 82.3266 58.2932 82.185 58.4539C82.0243 58.6336 81.869 58.8133 81.7138 58.9958C81.6021 59.1238 81.4931 59.2517 81.3869 59.3824C81.2126 59.5894 81.041 59.7991 80.8721 60.0088C80.7305 60.183 80.5943 60.3546 80.4581 60.5316C80.3955 60.6106 80.3355 60.6895 80.2756 60.7685C80.1639 60.9128 80.0523 61.0571 79.9433 61.2042C79.8807 61.2886 79.8207 61.3703 79.7581 61.4547C79.6437 61.6099 79.532 61.7651 79.4203 61.9231C79.3305 62.0511 79.2379 62.1763 79.1507 62.307C78.9382 62.6093 78.7285 62.917 78.5297 63.2247C78.4425 63.35 78.3608 63.4753 78.2818 63.6032C78.0939 63.8946 77.9086 64.1887 77.7316 64.4828C77.6281 64.6516 77.5273 64.8205 77.4293 64.9893C77.3203 65.1717 77.2141 65.3569 77.1106 65.5421C77.0561 65.6347 77.0043 65.7272 76.9526 65.8226C76.8545 65.9968 76.7565 66.1711 76.6639 66.3481C76.6148 66.438 76.5658 66.5278 76.5195 66.6204C76.5004 66.6558 76.4814 66.6912 76.4623 66.7266C76.2362 67.1569 76.0183 67.5898 75.8086 68.0283C77.5818 62.8244 78.5433 57.2421 78.5433 51.4392C78.5433 45.1134 77.402 39.0546 75.3129 33.4586C84.9796 35.343 93.6767 39.9314 100.584 46.4042Z" fill="#29ABE2"/>
<path d="M116.84 82.7547L83.9145 115.671C75.7622 107.519 71.6847 96.8331 71.6847 86.145C71.6847 85.8699 71.6874 85.5976 71.6929 85.3226C71.6983 85.0966 71.7038 84.8678 71.7119 84.6418C71.7147 84.5574 71.7174 84.4703 71.7228 84.3831C71.7419 83.9093 71.7691 83.4382 71.8045 82.9671C71.8127 82.8582 71.8209 82.7493 71.8318 82.6403C71.8509 82.398 71.8726 82.1529 71.8999 81.9106C71.9189 81.7199 71.938 81.532 71.9625 81.3414C71.987 81.0991 72.017 80.854 72.0524 80.6116C72.0688 80.4809 72.0851 80.3502 72.1042 80.2195C72.1069 80.1977 72.1123 80.1732 72.1151 80.1487C72.1423 79.9581 72.1723 79.7648 72.2022 79.5741C72.2349 79.3726 72.2676 79.1738 72.303 78.9723C72.3193 78.8689 72.3384 78.7654 72.3575 78.6619C72.4011 78.4141 72.4474 78.1636 72.5018 77.9158C72.5481 77.6707 72.5999 77.4283 72.6517 77.1833C72.698 76.9763 72.7443 76.7666 72.796 76.5597C72.8205 76.4399 72.8505 76.3228 72.8804 76.203C72.8804 76.1975 72.8804 76.1948 72.8832 76.1893C73.003 75.6992 73.131 75.2118 73.2699 74.727C73.3435 74.4602 73.4225 74.1933 73.5042 73.9292C73.5587 73.7467 73.6159 73.5643 73.6758 73.3818C73.7003 73.3001 73.7275 73.2184 73.7548 73.1368C73.8256 72.9189 73.8991 72.7038 73.9727 72.4887C74.2805 71.5928 74.6209 70.705 74.9941 69.8282C75.1575 69.4361 75.3319 69.0467 75.5116 68.66C75.5961 68.4721 75.6859 68.2842 75.7731 68.099C75.784 68.0773 75.7949 68.0555 75.8058 68.0337C75.8058 68.031 75.8058 68.031 75.8085 68.0282C76.0182 67.5898 76.2362 67.1569 76.4622 66.7266C76.4813 66.6912 76.5004 66.6558 76.5194 66.6204C76.5657 66.5278 76.6148 66.438 76.6638 66.3481C76.7564 66.1711 76.8545 65.9968 76.9525 65.8225C77.0043 65.7272 77.056 65.6346 77.1105 65.5421C77.214 65.3569 77.3202 65.1717 77.4292 64.9893C77.5272 64.8204 77.628 64.6516 77.7315 64.4828C77.9086 64.1887 78.0938 63.8946 78.2817 63.6032C78.3607 63.478 78.4451 63.35 78.5296 63.2247C78.7284 62.917 78.9382 62.6093 79.1506 62.307C79.2378 62.179 79.3277 62.0511 79.4203 61.9231C79.5319 61.7651 79.6436 61.6099 79.758 61.4547C79.8207 61.3703 79.8806 61.2886 79.9432 61.2042C80.0522 61.0571 80.1639 60.9128 80.2755 60.7685C80.3355 60.6895 80.3954 60.6105 80.458 60.5316C80.5942 60.3546 80.7304 60.183 80.872 60.0087C81.0409 59.7991 81.2125 59.5894 81.3868 59.3824C81.4931 59.2517 81.602 59.1237 81.7137 58.9957C81.8689 58.8133 82.0242 58.6336 82.1849 58.4539C82.3266 58.2932 82.4709 58.1325 82.6153 57.9746C83.0375 57.5144 83.4705 57.0624 83.9145 56.6185C88.7601 51.7768 94.4937 48.3784 100.584 46.4042C110.333 55.5483 116.518 68.4231 116.84 82.7547Z" fill="#9241A5"/>
<path d="M73.755 73.1367C73.7277 73.2187 73.7004 73.3007 73.6758 73.3826C73.7004 73.3034 73.725 73.2242 73.7496 73.1477C73.7496 73.1449 73.7523 73.1395 73.755 73.1367Z" fill="#9241A5"/>
<path d="M142.988 56.6185L123.627 75.9688L116.84 82.7547C116.518 68.4231 110.333 55.5483 100.584 46.4042C115.037 41.745 131.518 45.1488 142.988 56.6185Z" fill="#C1272D"/>
<path d="M116.859 83.942C116.859 112.352 93.8237 135.381 65.4064 135.381H64.9134C64.7908 135.267 64.6682 135.144 64.5538 135.03L83.9145 115.671L116.84 82.7547C116.853 83.1523 116.859 83.5471 116.859 83.942Z" fill="#4F3470"/>
<path d="M123.627 75.9688L116.84 82.7547C116.853 83.1523 116.859 83.5471 116.859 83.9419C116.859 112.352 93.8236 135.381 65.4063 135.381H64.9133C81.2533 151.341 109.638 151.578 125.836 135.381C127.236 133.981 128.5 132.506 129.628 130.964V117.191L125.183 118.452L124.297 115.364L130.102 113.313H133.253V124.895C140.765 109.103 136.783 89.1267 123.627 75.9688ZM123.036 135.381H108.499V132.544L116.194 124.696C118.065 122.825 119 121.207 119 119.84C119 118.768 118.681 117.932 118.038 117.332C117.398 116.733 116.584 116.434 115.595 116.434C113.745 116.434 112.378 117.349 111.496 119.179L108.437 117.382C109.131 115.911 110.109 114.795 111.37 114.038C112.631 113.283 114.029 112.905 115.562 112.905C117.496 112.905 119.158 113.515 120.547 114.732C121.933 115.952 122.628 117.613 122.628 119.712C122.628 121.951 121.364 124.334 118.836 126.863L113.827 131.882H123.036V135.381Z" fill="#A82932"/>
<path d="M123.036 131.882V135.381H108.499V132.544L116.194 124.696C118.065 122.825 119 121.207 119 119.84C119 118.768 118.681 117.932 118.038 117.333C117.398 116.733 116.584 116.434 115.595 116.434C113.745 116.434 112.378 117.349 111.496 119.179L108.437 117.382C109.131 115.911 110.109 114.795 111.37 114.038C112.631 113.283 114.029 112.905 115.562 112.905C117.496 112.905 119.158 113.515 120.547 114.732C121.933 115.952 122.628 117.613 122.628 119.713C122.628 121.951 121.364 124.334 118.836 126.863L113.827 131.882H123.036Z" fill="white"/>
<path d="M133.253 113.313V124.895C132.251 127.002 131.044 129.034 129.628 130.964V117.191L125.183 118.452L124.297 115.364L130.102 113.313H133.253Z" fill="white"/>
<path d="M17.2983 178.438C20.7712 178.438 23.6447 179.672 25.9164 182.136C28.188 184.601 29.3238 187.618 29.3238 191.188C29.3238 194.758 28.188 197.775 25.9164 200.239C23.6447 202.704 20.7712 203.937 17.2983 203.937H7.45996V178.436H17.2983V178.438ZM17.2983 201.536C20.0929 201.536 22.3809 200.539 24.1677 198.548C25.9518 196.558 26.8452 194.104 26.8452 191.191C26.8452 188.277 25.9518 185.823 24.1677 183.833C22.3809 181.842 20.0929 180.846 17.2983 180.846H10.0094V201.538H17.2983V201.536Z" fill="#353535"/>
<path d="M36.2476 201.536H48.6382V203.94H33.6982V178.438H48.4557V180.843H36.2476V189.878H47.5432V192.283H36.2476V201.536Z" fill="#353535"/>
<path d="M61.026 204.379C58.6945 204.379 56.6952 203.826 55.031 202.72C53.3667 201.615 52.2064 200.092 51.55 198.148L53.7372 196.874C54.1975 198.453 55.05 199.684 56.2894 200.572C57.5287 201.459 59.1194 201.901 61.0642 201.901C62.9599 201.901 64.4362 201.481 65.4903 200.643C66.5472 199.804 67.0756 198.693 67.0756 197.309C67.0756 195.975 66.588 194.965 65.6184 194.287C64.646 193.606 63.0417 192.903 60.8082 192.174C58.1606 191.3 56.412 190.594 55.5621 190.061C53.6173 188.895 52.6477 187.207 52.6477 184.996C52.6477 182.833 53.3994 181.129 54.9057 179.876C56.4119 178.626 58.2696 178 60.4813 178C62.4724 178 64.1993 178.517 65.6565 179.549C67.1137 180.581 68.1951 181.899 68.9005 183.503L66.7515 184.707C65.5857 181.889 63.4965 180.481 60.484 180.481C58.9042 180.481 57.6295 180.87 56.6571 181.646C55.6847 182.425 55.1998 183.503 55.1998 184.889C55.1998 186.153 55.6384 187.101 56.5127 187.732C57.3871 188.364 58.8334 189.007 60.849 189.663C61.7724 189.979 62.4342 190.205 62.8346 190.336C63.235 190.469 63.8179 190.687 64.5833 190.992C65.3487 191.297 65.9125 191.564 66.2775 191.792C66.6425 192.024 67.0838 192.34 67.6067 192.74C68.1297 193.14 68.5056 193.541 68.7371 193.944C68.9686 194.344 69.1756 194.831 69.3554 195.401C69.5379 195.972 69.6278 196.585 69.6278 197.241C69.6278 199.403 68.8379 201.133 67.2581 202.432C65.6783 203.728 63.6 204.379 61.026 204.379Z" fill="#353535"/>
<path d="M73.8169 178.438H76.3691V203.94H73.8169V178.438Z" fill="#353535"/>
<path d="M106.576 191.809V193.121C106.576 196.28 105.446 198.943 103.188 201.119C100.93 203.292 97.9034 204.379 94.1146 204.379C90.2523 204.379 87.0573 203.104 84.5323 200.553C82.0047 198.004 80.7435 194.883 80.7435 191.191C80.7435 187.498 82.0074 184.377 84.5323 181.829C87.0573 179.28 90.2523 178.003 94.1146 178.003C96.4707 178.003 98.6334 178.575 100.6 179.716C102.567 180.856 104.086 182.376 105.154 184.269L102.896 185.581C102.095 184.026 100.905 182.787 99.3252 181.864C97.7454 180.941 96.0103 180.481 94.1146 180.481C90.9332 180.481 88.332 181.513 86.3164 183.577C84.3008 185.641 83.293 188.179 83.293 191.191C83.293 194.202 84.3008 196.74 86.3164 198.804C88.332 200.868 90.9305 201.901 94.1146 201.901C96.98 201.901 99.2762 201.179 101.003 199.733C102.727 198.287 103.71 196.449 103.956 194.213H93.8259V191.809H106.576Z" fill="#353535"/>
<path d="M127.345 178.438H129.897V203.94H127.71L113.5 183.174V203.94H110.948V178.438H113.17L127.345 199.15V178.438Z" fill="#353535"/>
<path d="M17.2983 214.645C20.7712 214.645 23.6447 215.878 25.9164 218.343C28.188 220.807 29.3238 223.824 29.3238 227.397C29.3238 230.967 28.188 233.984 25.9164 236.448C23.6447 238.913 20.7712 240.146 17.2983 240.146H7.45996V214.645H17.2983ZM17.2983 237.742C20.0929 237.742 22.3809 236.745 24.1677 234.755C25.9518 232.764 26.8452 230.311 26.8452 227.397C26.8452 224.483 25.9518 222.03 24.1677 220.039C22.3809 218.049 20.0929 217.052 17.2983 217.052H10.0094V237.745H17.2983V237.742Z" fill="#353535"/>
<path d="M36.2476 237.742H48.6382V240.146H33.6982V214.645H48.4557V217.049H36.2476V226.084H47.5432V228.489H36.2476V237.742Z" fill="#353535"/>
<path d="M77.2053 228.015V229.328C77.2053 232.486 76.0749 235.15 73.8169 237.325C71.5589 239.498 68.5327 240.585 64.7439 240.585C60.8816 240.585 57.6866 239.31 55.1617 236.759C52.634 234.207 51.3729 231.089 51.3729 227.397C51.3729 223.704 52.6367 220.584 55.1617 218.035C57.6866 215.486 60.8816 214.209 64.7439 214.209C67.1 214.209 69.2627 214.781 71.2293 215.922C73.1959 217.063 74.7157 218.582 75.7835 220.475L73.5254 221.787C72.7246 220.232 71.5344 218.993 69.9546 218.07C68.3748 217.147 66.6397 216.687 64.7439 216.687C61.5626 216.687 58.9613 217.719 56.9457 219.783C54.9301 221.847 53.9223 224.385 53.9223 227.397C53.9223 230.409 54.9301 232.947 56.9457 235.011C58.9613 237.075 61.5598 238.107 64.7439 238.107C67.6094 238.107 69.9055 237.385 71.6324 235.939C73.3566 234.496 74.3399 232.655 74.585 230.42H64.4552V228.015H77.2053Z" fill="#353535"/>
<path d="M97.247 240.146L91.2955 229.946H84.1292V240.146H81.577V214.645H91.7803C93.894 214.645 95.6972 215.391 97.1925 216.886C98.6879 218.381 99.4342 220.183 99.4342 222.297C99.4342 224.02 98.9167 225.556 97.8844 226.904C96.8521 228.252 95.5337 229.156 93.9321 229.616L100.164 240.146H97.247ZM84.1292 217.049V227.541H91.7803C93.1885 227.541 94.3925 227.027 95.3894 225.992C96.3863 224.96 96.882 223.726 96.882 222.294C96.882 220.837 96.3836 219.598 95.3894 218.577C94.3925 217.556 93.1913 217.046 91.7803 217.046H84.1292V217.049Z" fill="#353535"/>
<path d="M106.355 237.742H118.746V240.146H103.806V214.645H118.563V217.049H106.355V226.084H117.651V228.489H106.355V237.742Z" fill="#353535"/>
<path d="M125.67 237.742H138.06V240.146H123.12V214.645H137.878V217.049H125.67V226.084H136.965V228.489H125.67V237.742Z" fill="#353535"/>
<path d="M15.4761 276.788C13.1445 276.788 11.1452 276.235 9.481 275.13C7.81676 274.024 6.65643 272.502 6 270.558L8.1872 269.283C8.64752 270.863 9.50006 272.094 10.7394 272.981C11.9787 273.869 13.5694 274.31 15.5142 274.31C17.41 274.31 18.8863 273.891 19.9404 273.052C20.9972 272.213 21.5256 271.102 21.5256 269.719C21.5256 268.385 21.038 267.375 20.0684 266.696C19.096 266.016 17.4917 265.313 15.2582 264.583C12.6107 263.709 10.862 263.004 10.0121 262.47C8.06735 261.305 7.09768 259.616 7.09768 257.405C7.09768 255.243 7.84946 253.538 9.35571 252.286C10.862 251.036 12.7196 250.41 14.9313 250.41C16.9224 250.41 18.6493 250.927 20.1065 251.959C21.5637 252.991 22.6451 254.309 23.3506 255.913L21.2015 257.117C20.0357 254.298 17.9466 252.89 14.934 252.89C13.3542 252.89 12.0795 253.28 11.1071 254.056C10.1347 254.835 9.64987 255.913 9.64987 257.299C9.64987 258.563 10.0884 259.51 10.9628 260.139C11.8371 260.771 13.2834 261.414 15.299 262.07C16.2224 262.386 16.8843 262.612 17.2847 262.743C17.6851 262.876 18.268 263.094 19.0334 263.399C19.7987 263.704 20.3626 263.971 20.7275 264.199C21.0925 264.431 21.5338 264.747 22.0568 265.147C22.5797 265.547 22.9556 265.948 23.1871 266.348C23.4187 266.748 23.6256 267.236 23.8054 267.805C23.9879 268.377 24.0778 268.989 24.0778 269.646C24.0778 271.808 23.2879 273.537 21.7081 274.836C20.1283 276.137 18.0528 276.788 15.4761 276.788Z" fill="#353535"/>
<path d="M44.6642 250.851H47.2164V276.353H44.6642V264.439H30.8165V276.353H28.2643V250.851H30.8165V262.035H44.6642V250.851Z" fill="#353535"/>
<path d="M74.1438 272.946C71.5943 275.508 68.4701 276.788 64.7794 276.788C61.0859 276.788 57.9645 275.508 55.415 272.946C52.8628 270.384 51.5881 267.268 51.5881 263.603C51.5881 259.935 52.8628 256.82 55.415 254.257C57.9645 251.695 61.0859 250.415 64.7794 250.415C68.4729 250.415 71.5943 251.698 74.1438 254.257C76.696 256.82 77.9707 259.935 77.9707 263.603C77.9707 267.268 76.696 270.384 74.1438 272.946ZM57.1991 271.195C59.2392 273.273 61.7669 274.31 64.7794 274.31C67.7919 274.31 70.3168 273.273 72.3597 271.195C74.3998 269.117 75.4212 266.588 75.4212 263.6C75.4212 260.613 74.3998 258.081 72.3597 256.006C70.3196 253.928 67.7919 252.89 64.7794 252.89C61.7669 252.89 59.2419 253.928 57.1991 256.006C55.159 258.083 54.1376 260.613 54.1376 263.6C54.1376 266.588 55.159 269.12 57.1991 271.195Z" fill="#353535"/>
<path d="M86.7386 276.35L79.4279 250.848H82.1217L88.4273 272.883L95.0597 250.848H98.0559L104.699 272.913L110.983 250.848H113.562L106.284 276.35H103.223L96.5578 254.214L89.8954 276.35H86.7386Z" fill="#353535"/>
</svg>
