<svg width="122" height="107" viewBox="0 0 122 107" fill="none" xmlns="http://www.w3.org/2000/svg">
<g opacity="0.25">
<g opacity="0.5">
<path d="M61.0222 42.3934L99.4208 80.7821C108.928 71.2739 113.684 58.8121 113.684 46.3472C113.684 46.0265 113.681 45.7089 113.674 45.3881C113.668 45.1245 113.661 44.8578 113.652 44.5942C113.649 44.4957 113.646 44.3941 113.639 44.2925C113.617 43.7399 113.585 43.1905 113.544 42.6411C113.534 42.5141 113.525 42.387 113.512 42.26C113.49 41.9774 113.465 41.6915 113.433 41.4089C113.411 41.1866 113.388 40.9675 113.36 40.7452C113.331 40.4625 113.296 40.1767 113.255 39.8941C113.236 39.7416 113.217 39.5892 113.195 39.4367C113.191 39.4113 113.185 39.3827 113.182 39.3542C113.15 39.1319 113.115 38.9064 113.08 38.6841C113.042 38.4491 113.004 38.2172 112.963 37.9822C112.944 37.8615 112.921 37.7409 112.899 37.6202C112.848 37.3312 112.794 37.039 112.731 36.75C112.677 36.4642 112.616 36.1816 112.556 35.8957C112.502 35.6544 112.448 35.4099 112.388 35.1685C112.359 35.0288 112.324 34.8922 112.289 34.7525C112.289 34.7461 112.289 34.743 112.286 34.7366C112.146 34.165 111.997 33.5965 111.835 33.0312C111.749 32.72 111.657 32.4088 111.562 32.1007C111.498 31.8879 111.432 31.6752 111.362 31.4624C111.333 31.3671 111.301 31.2718 111.269 31.1766C111.187 30.9225 111.101 30.6716 111.015 30.4207C110.656 29.3759 110.259 28.3406 109.824 27.318C109.634 26.8607 109.43 26.4065 109.221 25.9556C109.122 25.7365 109.017 25.5173 108.916 25.3014C108.903 25.276 108.89 25.2506 108.878 25.2252C108.878 25.222 108.878 25.222 108.874 25.2188C108.63 24.7075 108.376 24.2026 108.112 23.7008C108.09 23.6595 108.068 23.6182 108.045 23.5769C107.991 23.469 107.934 23.3642 107.877 23.2594C107.769 23.0529 107.655 22.8497 107.54 22.6464C107.48 22.5353 107.419 22.4273 107.356 22.3193C107.235 22.1034 107.111 21.8874 106.984 21.6746C106.87 21.4777 106.752 21.2808 106.632 21.0839C106.425 20.741 106.209 20.398 105.99 20.0582C105.898 19.9121 105.799 19.7628 105.701 19.6167C105.469 19.2579 105.224 18.899 104.977 18.5465C104.875 18.3972 104.77 18.248 104.662 18.0987C104.532 17.9145 104.402 17.7335 104.268 17.5525C104.195 17.454 104.125 17.3588 104.052 17.2603C103.925 17.0888 103.795 16.9205 103.665 16.7522C103.595 16.6601 103.525 16.568 103.452 16.4759C103.293 16.2695 103.134 16.0694 102.969 15.8662C102.772 15.6216 102.572 15.3771 102.369 15.1357C102.245 14.9833 102.118 14.834 101.988 14.6848C101.806 14.472 101.625 14.2624 101.438 14.0528C101.273 13.8654 101.104 13.678 100.936 13.4939C100.444 12.9571 99.9386 12.43 99.4208 11.9123C93.7697 6.2658 87.083 2.30243 79.9801 0C68.6111 10.6642 61.3971 25.6793 61.0222 42.3934Z" fill="#9241A5"/>
<path d="M111.269 31.1765C111.301 31.2721 111.333 31.3677 111.362 31.4633C111.333 31.3709 111.304 31.2785 111.276 31.1893C111.276 31.1861 111.272 31.1797 111.269 31.1765Z" fill="#9241A5"/>
</g>
<g opacity="0.5">
<path d="M0.0222397 45.4058L38.4208 83.7946C47.9284 74.2863 52.6837 61.8246 52.6837 49.3597C52.6837 49.0389 52.6805 48.7213 52.6742 48.4006C52.6678 48.137 52.6615 47.8702 52.6519 47.6066C52.6488 47.5082 52.6456 47.4066 52.6392 47.3049C52.617 46.7524 52.5852 46.203 52.5439 45.6536C52.5344 45.5265 52.5249 45.3995 52.5122 45.2725C52.4899 44.9898 52.4645 44.704 52.4328 44.4214C52.4105 44.199 52.3883 43.9799 52.3597 43.7576C52.3311 43.475 52.2962 43.1891 52.2549 42.9065C52.2358 42.7541 52.2167 42.6016 52.1945 42.4492C52.1913 42.4238 52.185 42.3952 52.1818 42.3666C52.15 42.1443 52.1151 41.9188 52.0802 41.6965C52.042 41.4615 52.0039 41.2297 51.9626 40.9947C51.9436 40.874 51.9213 40.7533 51.8991 40.6327C51.8483 40.3437 51.7943 40.0515 51.7307 39.7625C51.6767 39.4767 51.6164 39.194 51.556 38.9082C51.502 38.6668 51.448 38.4223 51.3877 38.181C51.3591 38.0412 51.3241 37.9047 51.2892 37.7649C51.2892 37.7586 51.2892 37.7554 51.286 37.7491C51.1462 37.1774 50.9969 36.609 50.8349 36.0437C50.7492 35.7324 50.6571 35.4212 50.5618 35.1132C50.4982 34.9004 50.4315 34.6876 50.3616 34.4748C50.333 34.3796 50.3013 34.2843 50.2695 34.189C50.1869 33.9349 50.1011 33.6841 50.0154 33.4332C49.6564 32.3883 49.2593 31.353 48.8242 30.3304C48.6336 29.8731 48.4302 29.419 48.2206 28.968C48.1221 28.7489 48.0173 28.5298 47.9157 28.3138C47.9029 28.2884 47.8902 28.263 47.8775 28.2376C47.8775 28.2344 47.8775 28.2344 47.8744 28.2313C47.6298 27.72 47.3756 27.215 47.112 26.7132C47.0897 26.672 47.0675 26.6307 47.0453 26.5894C46.9913 26.4814 46.9341 26.3766 46.8769 26.2718C46.7689 26.0654 46.6545 25.8621 46.5402 25.6589C46.4798 25.5477 46.4195 25.4398 46.3559 25.3318C46.2352 25.1158 46.1113 24.8999 45.9843 24.6871C45.8699 24.4902 45.7524 24.2933 45.6317 24.0964C45.4252 23.7534 45.2092 23.4104 44.99 23.0706C44.8979 22.9245 44.7994 22.7753 44.7009 22.6292C44.4691 22.2703 44.2245 21.9115 43.9767 21.559C43.875 21.4097 43.7702 21.2604 43.6622 21.1112C43.532 20.927 43.4017 20.746 43.2683 20.5649C43.1952 20.4665 43.1254 20.3712 43.0523 20.2728C42.9252 20.1013 42.795 19.933 42.6647 19.7647C42.5949 19.6726 42.525 19.5805 42.4519 19.4884C42.2931 19.2819 42.1343 19.0819 41.9691 18.8786C41.7721 18.6341 41.572 18.3895 41.3687 18.1482C41.2448 17.9957 41.1178 17.8465 40.9875 17.6972C40.8065 17.4844 40.6254 17.2748 40.438 17.0652C40.2728 16.8779 40.1044 16.6905 39.9361 16.5063C39.4437 15.9696 38.9386 15.4424 38.4208 14.9248C32.7697 9.27825 26.083 5.31489 18.9801 3.01245C7.6111 13.6767 0.397076 28.6917 0.0222397 45.4058Z" fill="#9241A5"/>
<path d="M50.2691 34.189C50.301 34.2846 50.3329 34.3802 50.3616 34.4758C50.3329 34.3833 50.3042 34.2909 50.2755 34.2017C50.2755 34.1985 50.2723 34.1922 50.2691 34.189Z" fill="#9241A5"/>
</g>
<g opacity="0.5">
<path d="M61 43.7777C61 76.9105 87.8644 103.768 121.006 103.768H121.581C121.724 103.635 121.867 103.492 122 103.358L99.4208 80.7818L61.0222 42.3931C61.0064 42.8567 61 43.3172 61 43.7777Z" fill="#4F3470"/>
</g>
<g opacity="0.5">
<path d="M-3.8147e-06 46.7901C-3.8147e-06 79.923 26.8644 106.78 60.0057 106.78H60.5807C60.7236 106.647 60.8666 106.504 61 106.371L38.4208 83.7943L0.0222359 45.4055C0.00635147 45.8692 -3.8147e-06 46.3297 -3.8147e-06 46.7901Z" fill="#4F3470"/>
</g>
</g>
</svg>
